<?xml version="1.0" standalone="yes"?>

<svg version="1.1" viewBox="0.0 0.0 192.0 192.0" fill="none" stroke="none" stroke-linecap="square" stroke-miterlimit="10" xmlns="http://www.w3.org/2000/svg" xmlns:xlink="http://www.w3.org/1999/xlink"><clipPath id="p.0"><path d="m0 0l192.0 0l0 192.0l-192.0 0l0 -192.0z" clip-rule="nonzero"></path></clipPath><g clip-path="url(#p.0)"><path fill="#000000" fill-opacity="0.0" d="m0 0l192.0 0l0 192.0l-192.0 0z" fill-rule="nonzero"></path><path fill="#009688" d="m33.715416 33.88254l0 0c34.337326 -34.337326 90.05849 -34.28797 124.45669 0.11023331l0 0c16.5186 16.518604 25.810272 38.91102 25.830948 62.251175c0.02067566 23.340164 -9.2313385 45.71615 -25.720703 62.205513l0 0c-34.337326 34.337326 -90.05849 34.28798 -124.456696 -0.11022949l0 0c-34.39821 -34.39821 -34.447563 -90.11937 -0.11023712 -124.456696z" fill-rule="nonzero"></path><path stroke="#009688" stroke-width="16.0" stroke-linejoin="round" stroke-linecap="butt" d="m33.715416 33.88254l0 0c34.337326 -34.337326 90.05849 -34.28797 124.45669 0.11023331l0 0c16.5186 16.518604 25.810272 38.91102 25.830948 62.251175c0.02067566 23.340164 -9.2313385 45.71615 -25.720703 62.205513l0 0c-34.337326 34.337326 -90.05849 34.28798 -124.456696 -0.11022949l0 0c-34.39821 -34.39821 -34.447563 -90.11937 -0.11023712 -124.456696z" fill-rule="nonzero"></path><path fill="#00695c" d="m63.702984 39.811817l97.47958 97.47958l-17.126297 17.126297l-97.47958 -97.47958z" fill-rule="nonzero"></path><path fill="#00695c" d="m115.86126 57.53952l0 0c2.5399704 -2.5399704 6.658081 -2.5399704 9.198051 0l18.395554 18.395554l0 0c1.2197418 1.2197342 1.9049835 2.874054 1.9049835 4.599022c0 1.724968 -0.6852417 3.3792877 -1.9049835 4.5990295l-51.55687 51.55686c-2.5399704 2.539978 -6.658081 2.539978 -9.198051 0l-18.395554 -18.395546c-2.5399704 -2.5399704 -2.5399704 -6.658081 0 -9.198051z" fill-rule="nonzero"></path><path fill="#00695c" d="m47.333897 126.06689l0 0c4.9298363 -4.92984 12.115486 -6.8546677 18.849506 -5.0492554c6.7340164 1.8054199 11.993034 7.066719 13.79554 13.801521c1.8024979 6.7348022 -0.12545013 13.919617 -5.0574265 18.847305l-13.790817 -13.80278z" fill-rule="nonzero"></path><path stroke="#00695c" stroke-width="1.0" stroke-linejoin="round" stroke-linecap="butt" d="m47.333897 126.06689l0 0c4.9298363 -4.92984 12.115486 -6.8546677 18.849506 -5.0492554c6.7340164 1.8054199 11.993034 7.066719 13.79554 13.801521c1.8024979 6.7348022 -0.12545013 13.919617 -5.0574265 18.847305l-13.790817 -13.80278z" fill-rule="nonzero"></path><path fill="#ffc107" d="m60.711876 33.96873l97.479576 97.47958l-17.126297 17.126297l-97.47957 -97.47958z" fill-rule="nonzero"></path><path fill="#ffc107" d="m112.870155 51.696434l0 0c2.5399704 -2.5399742 6.658081 -2.5399742 9.198051 0l18.395554 18.395554l0 0c1.2197266 1.2197342 1.9049683 2.874054 1.9049683 4.599022c0 1.724968 -0.6852417 3.3792877 -1.9049683 4.5990295l-51.556877 51.55687c-2.5399704 2.5399628 -6.658081 2.5399628 -9.198051 0l-18.39555 -18.395554c-2.5399704 -2.5399704 -2.5399704 -6.658081 0 -9.198051z" fill-rule="nonzero"></path><path fill="#ffc107" d="m44.34279 120.22379l0 0c4.9298363 -4.9298325 12.115486 -6.8546677 18.849506 -5.0492477c6.73402 1.8054199 11.993038 7.066719 13.795536 13.801514c1.8024979 6.7348022 -0.12545013 13.919617 -5.057419 18.84732l-13.790821 -13.80278z" fill-rule="nonzero"></path><path stroke="#ffc107" stroke-width="1.0" stroke-linejoin="round" stroke-linecap="butt" d="m44.34279 120.22379l0 0c4.9298363 -4.9298325 12.115486 -6.8546677 18.849506 -5.0492477c6.73402 1.8054199 11.993038 7.066719 13.795536 13.801514c1.8024979 6.7348022 -0.12545013 13.919617 -5.057419 18.84732l-13.790821 -13.80278z" fill-rule="nonzero"></path></g></svg>

